<svg id="Layer_1" data-name="Layer 1" xmlns="http://www.w3.org/2000/svg" viewBox="0 0 100 100"><defs><style>.cls-1{fill:#fff;}</style></defs><path class="cls-1" d="M46.15,80.3c.63-2.45,1.21-4.57,1.71-6.72a1.55,1.55,0,0,0-.37-1.13,5.26,5.26,0,0,1-1.11-3.79h7.23a5.35,5.35,0,0,1-1.17,3.83,1.46,1.46,0,0,0-.35,1.11c.5,2.14,1.09,4.26,1.67,6.49a2.62,2.62,0,0,0,.59-.38C57.6,75.82,61.06,72.09,64,68c1.28-1.83,2.31-2.45,4.39-2.07,2.6.47,5.25.57,7.86,1,4.53.67,7.78,3.32,10.33,7a33,33,0,0,1,4.61,10.33,8.19,8.19,0,0,1-3.55,9.33c-3.7,2.49-8,3.57-12.23,4.39a141.18,141.18,0,0,1-31.87,2c-6.74-.26-13.48-.67-20.06-2.28A50.54,50.54,0,0,1,14,94.37C8.93,92,7.45,88.06,9.23,82.75a52.48,52.48,0,0,1,2.26-5.63c3.28-7,8.83-10.63,16.56-11,1.93-.08,3.86-.33,5.79-.45a1.15,1.15,0,0,1,.94.39c2.16,4.11,5.37,7.4,8.35,10.88C44,78,45,79.05,46.15,80.3Z"/><path class="cls-1" d="M23.3,15.77a9.28,9.28,0,0,0,.86,1,1.64,1.64,0,0,1,.27,2.35,3.08,3.08,0,0,0-.58,1.71c.3,4.93.66,9.85,1,14.77a11.71,11.71,0,0,1-1.63,6.18,11.47,11.47,0,0,1-1.62-5.94c.34-5,.71-9.93,1-14.9a3.63,3.63,0,0,0-.58-1.85,1.61,1.61,0,0,1,.23-2.25c1.16-1.11,1.1-1.47-.25-2.12-.84-.4-2.21-.61-2-1.75.15-.7,1.25-1.36,2.06-1.72,8-3.51,16-6.94,24-10.42a9.29,9.29,0,0,1,7.8,0q12.17,5.3,24.37,10.54a2,2,0,0,1,.6.28c.4.42,1.07.88,1.07,1.32s-.61,1.06-1.09,1.29c-2.52,1.17-5.06,2.3-7.63,3.32a1.73,1.73,0,0,0-1.29,1.95c.08,3.08-.12,6.16.63,9.2a18.73,18.73,0,0,1,.32,3.68,9.12,9.12,0,0,0,.85,4.09c1.31,2.54.73,5.38-.26,8A28.52,28.52,0,0,1,69.26,48c-.76,1.32-1.39,2.71-2.09,4.06-2.53,4.89-5.7,9.22-10.62,12a12.91,12.91,0,0,1-13.35,0A24.5,24.5,0,0,1,34,54.62c-1.06-1.81-1.9-3.76-2.85-5.65a2.35,2.35,0,0,0-.38-.68C27.5,45.58,27,41.91,27.36,38a8.49,8.49,0,0,1,1.27-2.63,3.17,3.17,0,0,0,.34-.81A80.62,80.62,0,0,0,30,19.46a1.62,1.62,0,0,0-1.14-1.78c-1.79-.67-3.53-1.49-5.29-2.25ZM32.79,37.9l-.17-.16c-.46.45-1.25.84-1.34,1.35A8.81,8.81,0,0,0,32,45.38c.3.5.79,1.18,1.26,1.23.87.09,1,.58,1.26,1.21a25.56,25.56,0,0,0,8,11.45c4.63,3.68,9.9,3.75,14.56.1a17.82,17.82,0,0,0,3.78-3.83c1.59-2.36,2.84-4.94,4.25-7.42a6.83,6.83,0,0,1,1-1.37c.5-.51,1.4-.83,1.57-1.4a26.13,26.13,0,0,0,1-5.24c.11-1.19-.38-2.29-1.62-2.15C66,35.67,65,33.49,63.82,31.45c-.84-1.45-1.47-1.49-3-.83-2.43,1.06-4.84,2.13-7.27,3.17a8.79,8.79,0,0,1-7.07,0c-2.27-1-4.56-1.89-6.77-3a2.29,2.29,0,0,0-2.88.32,17.31,17.31,0,0,0-2.69,3.19A21,21,0,0,0,32.79,37.9Z"/></svg>