<svg id="Layer_1" data-name="Layer 1" xmlns="http://www.w3.org/2000/svg" viewBox="0 0 100 100"><defs><style>.cls-1{fill:#fff;}</style></defs><path class="cls-1" d="M12.31,37.09H87.69v40.5H83.5V47.14a4.49,4.49,0,0,0-8.87-1,4.85,4.85,0,0,0-.12,1.14q0,14.88,0,29.76v.56H69.22V47.26a4.51,4.51,0,1,0-9-.19c0,2.72,0,5.44,0,8.16V77.59H54.93v-.45q0-14.93,0-29.85a4.54,4.54,0,0,0-1-3A4.47,4.47,0,0,0,46.09,46a5.28,5.28,0,0,0-.16,1.43q0,14.82,0,29.64v.48H40.65V47.11a4.5,4.5,0,0,0-8.38-2.31,4.45,4.45,0,0,0-.62,2.31V77.58H26.36V47.11a4.49,4.49,0,0,0-9-.48,7.32,7.32,0,0,0,0,.81V77.59h-5Z"/><path class="cls-1" d="M99.11,31.08h-8.4a1.42,1.42,0,0,0,0,.24,3.12,3.12,0,0,1-3.1,3.9H12.37a3.11,3.11,0,0,1-3-2.1,3.21,3.21,0,0,1-.1-1.71l.07-.32H.89V31l.41-.19L31.87,16.34,49.76,7.86a.51.51,0,0,1,.48,0L78.09,21.05l20.84,9.88.19.1ZM50,28.17a5.54,5.54,0,1,0-5.54-5.54A5.56,5.56,0,0,0,50,28.17Z"/><path class="cls-1" d="M4.75,83.27H6.91c.22,0,.29-.06.3-.29A3.81,3.81,0,0,1,11,79.35h.54q38.63,0,77.23,0a3.93,3.93,0,0,1,4,3.29s0,0,0,.06c.09.59.09.59.68.59h1.81V92.2H4.75Z"/></svg>