<svg id="Layer_1" data-name="Layer 1" xmlns="http://www.w3.org/2000/svg" viewBox="0 0 100 100"><defs><style>.cls-1{fill:#fff;}</style></defs><path class="cls-1" d="M91.26,17.06c-.6,4.24-1.3,9.3-2,14.35s-1.45,10.1-2.17,15.16c-1,6.78-1.94,13.57-2.92,20.35-.48,3.31-.85,6.64-1.51,9.92a8.53,8.53,0,0,1-6,6.53,1.14,1.14,0,0,0-.92,1.32,8.48,8.48,0,0,1-7.33,8.55c-6,.91-12.09,1.71-18.14,2.53C42.35,96.85,34.43,97.89,26.52,99a8.78,8.78,0,0,1-9.66-7.69c-1-7-1.89-13.93-2.84-20.89-1.14-8.32-2.31-16.65-3.45-25-.6-4.35-1.23-8.7-1.74-13.06-.54-4.71,1.15-8,5.07-9.79a14.94,14.94,0,0,1,4-1c4-.58,8-1.1,11.93-1.59.87-.1,1.17-.47,1.28-1.32.47-3.53.9-7.06,1.58-10.55A9,9,0,0,1,43,1Q59.44,3.37,75.91,5.68c2.69.38,5.39.74,8.06,1.24C88.4,7.74,91.48,11.73,91.26,17.06ZM35.52,19.21c1.82-.26,3.39-.5,4.95-.71,5.43-.73,10.88-1.4,16.3-2.2s9.87,2.05,10.81,7.38c.44,2.51.72,5.05,1,7.57.69,5.19,1.35,10.38,2.05,15.57,1.16,8.49,2.35,17,3.52,25.48.32,2.26.63,4.53,1,6.87a4.72,4.72,0,0,0,3.27-3.82q.66-4.34,1.27-8.69Q81.35,55.23,83,43.81l3.75-26.47c.5-3.54-1-5.72-4.51-6.25C78.36,10.5,74.5,10,70.65,9.45,65.52,8.71,60.39,8,55.26,7.22c-4.4-.63-8.79-1.28-13.19-1.8A4.53,4.53,0,0,0,37,9C36.41,12.28,36,15.62,35.52,19.21Zm6.76,58.52A21.83,21.83,0,1,0,20.47,56,21.84,21.84,0,0,0,42.28,77.73Z"/><path class="cls-1" d="M48,57.38v6.41c-1.67.25-3.34.52-5,.76-1.36.2-2.73.39-4.1.49-.36,0-1-.23-1.06-.48-.57-1.78-1-3.59-1.56-5.58Z"/><path class="cls-1" d="M47.4,52.94,35.65,54.55c0-1.93,0-3.72,0-5.51,0-.28.52-.72.84-.77,2.77-.41,5.55-.78,8.33-1.09.35,0,1,.22,1.06.48C46.47,49.36,46.9,51.09,47.4,52.94Z"/><path class="cls-1" d="M59.88,55.74c-.51,2.26-.94,4.24-1.44,6.19,0,.23-.45.48-.72.53-1.68.28-3.37.49-5.2.75V56.79Z"/><path class="cls-1" d="M50.34,46.43c1.77-.25,3.45-.53,5.13-.72a1.29,1.29,0,0,1,1,.41c.9,1.62,1.72,3.28,2.71,5.22-2.57.33-4.73.64-6.91.86-.22,0-.64-.36-.71-.63C51.15,49.93,50.78,48.27,50.34,46.43Z"/><path class="cls-1" d="M25.41,60.44l6.39-.84,1.61,6.17-2.26.33c-2.79.41-2.83.43-4.2-2.08C26.36,62.94,26,61.75,25.41,60.44Z"/><path class="cls-1" d="M24.61,56.05c.46-2.18.83-4.08,1.3-6,.06-.24.65-.43,1-.49,1.31-.22,2.64-.36,4.27-.58,0,1.89,0,3.74,0,5.6a.81.81,0,0,1-.5.58C28.81,55.49,26.93,55.73,24.61,56.05Z"/><path class="cls-1" d="M36.23,43.46c.69-1.3,1.31-2.65,2.1-3.89a1.54,1.54,0,0,1,2.49-.34c1.11,1,2,2.18,3.29,3.53l-7.57,1Z"/><path class="cls-1" d="M40.19,69.37l6.8-.86.29.28c-.67,1.22-1.26,2.48-2,3.63a1.53,1.53,0,0,1-2.42.33,39.29,39.29,0,0,1-2.9-3Z"/><path class="cls-1" d="M47.31,39.2l4.61,2.16C49,42.61,48.53,42.42,47.31,39.2Z"/><path class="cls-1" d="M51.57,70.65c.54-3.4-.13-2.8,3.53-3Z"/><path class="cls-1" d="M28.93,44.66l3-2.78C32.05,44.45,31.85,44.65,28.93,44.66Z"/><path class="cls-1" d="M33.07,70.63c2.42-.56,2.42-.56,3.16,1.61Z"/></svg>