<svg id="Layer_1" data-name="Layer 1" xmlns="http://www.w3.org/2000/svg" viewBox="0 0 100 100"><defs><style>.cls-1{fill:#fff;}</style></defs><path class="cls-1" d="M92.2,56.14c-.1.68-.16,1.37-.3,2a10.26,10.26,0,0,1-2.71,5,30.53,30.53,0,0,1-5.36,4.38q-1.9,1.29-3.91,2.47c.14-.35.28-.7.4-1a19.29,19.29,0,0,0,1-5c.16-2.21.25-4.42.4-6.63a21.82,21.82,0,0,1,1-5.89c.06-.17.13-.34.2-.53.39,1.83.78,3.61,1.16,5.4a18.69,18.69,0,0,1,.48,4.41c0,.84-.13,1.68-.2,2.52a1.26,1.26,0,0,0,0,.43c.11-.13.23-.26.34-.4,1.22-1.49,2.47-2.95,3.65-4.47A19.85,19.85,0,0,0,92,51.87c0,.11,0,.22,0,.32l.21,2.2Z"/><path class="cls-1" d="M7.8,54.39c.07-.72.13-1.44.2-2.16,0-.12,0-.23,0-.41.05.08.08.1.08.12a17.85,17.85,0,0,0,3.27,6.51c1.32,1.73,2.73,3.38,4.1,5.07a.56.56,0,0,1,.07.18l.11-.08c0-.19,0-.38-.07-.57a20.12,20.12,0,0,1,.47-7.53c.35-1.52.66-3,1-4.58l.1.2a18.51,18.51,0,0,1,1.08,5.35c.16,2.19.25,4.39.4,6.58a21.18,21.18,0,0,0,1.23,6.44l.25.62c-.88-.56-1.69-1-2.48-1.57l-2.9-2a.59.59,0,0,1-.28-.56c0-.41,0-.41-.43-.36l-.06.27s-.05,0-.06,0a18.44,18.44,0,0,1-4.49-4.54,10,10,0,0,1-1.56-4.79c0-.16,0-.32-.06-.48Z"/><path class="cls-1" d="M80.89,59.73c-.26,1.42-.51,2.82-.78,4.22-.31,1.6-.58,3.21-1,4.79a10.69,10.69,0,0,1-2.56,4.86c-.16.16-.34.3-.56.5a.9.9,0,0,0,.18,0L83.07,70a26.43,26.43,0,0,0,4.41-3,9.64,9.64,0,0,0,2.57-3.49,1,1,0,0,1,.12-.19,7.26,7.26,0,0,1-.82,4.11h-.09a8.49,8.49,0,0,0,0-1,.46.46,0,0,0-.25-.36.59.59,0,0,0-.44.08c-.06,0,0,.2-.08.3l.27-.07.18-.05c0,.07,0,.16,0,.21s-.19.12-.24.2a1.78,1.78,0,0,0-.21.54c0,.07.17.2.28.23a3.06,3.06,0,0,0,.52,0c-.81,2.7-6.74,7.37-9.72,7.68,0-.31,0-.76-.49-.72-.22,0-.37.16-.32.49l.26-.12.19-.07c0,.08,0,.2,0,.23-.26.17-.44.45-.8.49a42.71,42.71,0,0,0-6.15,1.15l-.54.14c.45-.61.94-1.18,1.35-1.81a26,26,0,0,0,2.23-4.93c.72-1.87,1.41-3.76,2.21-5.6a12.75,12.75,0,0,1,3.27-4.59Z"/><path class="cls-1" d="M19.21,59.72c.55.62,1.13,1.22,1.63,1.87A20.78,20.78,0,0,1,23.62,67c.75,1.94,1.45,3.89,2.23,5.82a11.47,11.47,0,0,0,2.59,4c-.62-.16-1.17-.33-1.72-.43-1.7-.31-3.41-.61-5.11-.9-.48-.08-.49-.07-.51-.56,0-.27-.14-.45-.41-.45s-.41.12-.41.48l.3-.13.17,0c0,.07.05.16,0,.2a.51.51,0,0,1-.6.19,15.49,15.49,0,0,1-3.43-1.53,16.51,16.51,0,0,1-5.61-5.29,1.68,1.68,0,0,1-.31-1.07,6.25,6.25,0,0,0,0-1.06c0-.44-.19-.54-.62-.6a.33.33,0,0,1-.25-.2c-.08-.66-.13-1.32-.19-2l.12,0a1.62,1.62,0,0,0,.1.18c.34.59.68,1.17,1,1.77a.85.85,0,0,1,.08.39c0,.64,0,1.28,0,1.92,0,.06.16.17.26.18s.19-.12.19-.2c0-.38,0-.76,0-1.14,0-.11,0-.22,0-.33l.11,0a1.9,1.9,0,0,1,.11.39c0,.37,0,.73,0,1.1,0,.17.07.26.22.22a.34.34,0,0,0,.24-.21,5.17,5.17,0,0,0,0-.8c.49.24.19.68.35,1H13l.06-.3.79.59a.85.85,0,0,0-.32,0,.37.37,0,0,0-.18.23s.11.16.19.17a.86.86,0,0,0,.45,0c.33-.15.56,0,.82.18,1.88,1.1,3.78,2.18,5.66,3.29,1.09.64,2.16,1.33,3.23,2l.22.13c-.39-.46-.75-.84-1.08-1.25a11.58,11.58,0,0,1-2.16-4.84c-.4-1.89-.7-3.81-1.06-5.71-.14-.76-.32-1.52-.48-2.28l-.06-.28Z"/><path class="cls-1" d="M16.07,74.45a9.53,9.53,0,0,0,6.3,3.09c2,.28,4.05.37,6.07.55l4.62.43.23,0a1.1,1.1,0,0,0-.2-.11,9.8,9.8,0,0,1-6.52-5.74c-.57-1.26-1.12-2.53-1.67-3.8,0,0,0-.06,0-.14l.85.51a49.91,49.91,0,0,1,5.46,4.28,32.15,32.15,0,0,0,5.72,4.18c.77.41,1.58.73,2.39,1.1l-.83.2c-2.26.52-4.52,1.09-6.8,1.54a19.28,19.28,0,0,1-6.9.21,11.64,11.64,0,0,1-8.08-5.3c-.2-.3-.38-.6-.56-.91A.39.39,0,0,1,16.07,74.45Z"/><path class="cls-1" d="M83.91,74.43a12.77,12.77,0,0,1-2.22,3A11.91,11.91,0,0,1,73.18,81a29,29,0,0,1-7.35-.89c-1.66-.39-3.32-.81-5-1.21l-.2-.06c.54-.22,1-.4,1.53-.62a24.83,24.83,0,0,0,5.38-3.58c1.88-1.55,3.75-3.1,5.65-4.62a12.78,12.78,0,0,1,1.93-1.19l-.18.43c-.67,1.47-1.3,3-2,4.39A9.31,9.31,0,0,1,67,78.4l-.22.07s0,0-.1.07c.54-.07,1-.15,1.51-.19q2.83-.21,5.69-.39a29.66,29.66,0,0,0,5-.66A8.89,8.89,0,0,0,83.91,74.43Z"/><path class="cls-1" d="M10.89,39.36c0,.82-.08,1.6-.07,2.37a26,26,0,0,0,.88,5.89c.35,1.51.65,3,1,4.54l.05.12c.19-.67.35-1.33.57-2a21.07,21.07,0,0,1,2.54-4.51c.66-1,1.26-2.07,1.9-3.09a.39.39,0,0,1,.2-.18,4.84,4.84,0,0,1,.56-.1c-.09.63-.16,1.3-.28,2a38,38,0,0,1-1.78,6.1,37.06,37.06,0,0,0-1.77,6c-.19,1.12-.25,2.26-.37,3.38,0,.11,0,.21,0,.35-.06,0-.1,0-.11-.06A26.51,26.51,0,0,1,10,54a14.22,14.22,0,0,1-1-8.7,27.82,27.82,0,0,1,1.81-5.84Zm.46,11.24a7.67,7.67,0,0,0,0-1.07.53.53,0,0,0-.33-.35c-.13,0-.29.12-.43.21s0,.13,0,.2a1.64,1.64,0,0,0,.23,0,.88.88,0,0,0,.22-.1.83.83,0,0,1-.1.29c-.08.1-.24.15-.29.25a1,1,0,0,0-.05.49c0,.06.14.14.21.15A3.86,3.86,0,0,0,11.35,50.6Z"/><path class="cls-1" d="M87.28,52.26c.18-.89.36-1.78.55-2.66.4-1.94.85-3.87,1.2-5.81a14.12,14.12,0,0,0,.08-3.95,1.07,1.07,0,0,1,0-.46c.25.64.51,1.28.75,1.92a21.31,21.31,0,0,1,1.37,6.64A14.2,14.2,0,0,1,89,55.88a33.1,33.1,0,0,1-3.15,4.2s-.06.09-.11.15-.06-.09-.06-.11a24.16,24.16,0,0,0-1.55-7.89c-.7-2.09-1.39-4.19-2-6.3a24.52,24.52,0,0,1-.5-2.44,1.08,1.08,0,0,1,0-.18l.86-.19c1.25,2.05,2.55,4.1,3.78,6.2A10.34,10.34,0,0,1,87.28,52.26Zm2-1.65a8.46,8.46,0,0,0,0-1.12.47.47,0,0,0-.33-.31c-.12,0-.28.1-.41.19s0,.15,0,.23l.24,0,.21-.08a.78.78,0,0,1-.09.27c-.08.1-.26.16-.31.27a1,1,0,0,0,0,.48c0,.06.14.14.22.15A3.53,3.53,0,0,0,89.26,50.61Z"/><path class="cls-1" d="M17.51,27.93a23.31,23.31,0,0,0-1.94,6.43c-.43,2.59-.83,5.18-1.24,7.83.1-.24.19-.44.28-.64A14.23,14.23,0,0,1,17.93,37c1.39-1.34,2.81-2.66,4.22-4l.15-.1c-.11.42-.2.77-.31,1.12a18.69,18.69,0,0,1-2.54,4.69c-.26.37-.54.73-.8,1.1a1.27,1.27,0,0,1-.62.54c-.15,0-.24.34-.34.53a2.23,2.23,0,0,1-.16.43,40.6,40.6,0,0,0-3.48,5.23c-.34.64-.62,1.31-.93,2a.61.61,0,0,1-.19.27c-.07-.7-.14-1.41-.23-2.11-.2-1.69-.47-3.38-.63-5.08A15.81,15.81,0,0,1,16.8,28.53c.22-.22.41-.47.62-.7Z"/><path class="cls-1" d="M82.57,27.86c.63.69,1.29,1.35,1.88,2.08a16.06,16.06,0,0,1,3.31,13.17c-.28,1.85-.46,3.73-.68,5.6,0,0,0,.08,0,.14a.45.45,0,0,1-.07-.07,28.62,28.62,0,0,0-3.8-6.47A3.06,3.06,0,0,0,83,42a1.6,1.6,0,0,1-.47-1.35c0-.37,0-.37-.44-.32l0,.14s0,.1,0,.23C80.21,38.3,78.4,36,77.77,33l1,.93c1.38,1.32,2.78,2.61,4.12,4A12,12,0,0,1,85.58,42c0,.06.06.11.11.22-.17-1-.33-2-.5-3-.39-2.29-.75-4.58-1.18-6.87a17.88,17.88,0,0,0-1.43-4.23l-.09-.19Z"/><path class="cls-1" d="M43.84,16l2.57-.15c.54,0,1.08-.07,1.62-.08a.4.4,0,0,0,.44-.31c.45-1.19.92-2.38,1.38-3.57l.14-.35c.06.12.11.2.14.28.47,1.21.94,2.42,1.39,3.63a.42.42,0,0,0,.44.32l4,.21.27,0-.32.26-3,2.45a.34.34,0,0,0-.13.41c.34,1.25.67,2.49,1,3.73,0,.11.05.23.09.39a2.83,2.83,0,0,1-.26-.14c-1.09-.7-2.18-1.4-3.26-2.12a.43.43,0,0,0-.57,0c-1.08.72-2.18,1.41-3.27,2.12l-.27.15c.17-.64.32-1.22.48-1.8.2-.76.39-1.53.61-2.29a.38.38,0,0,0-.17-.48l-3-2.46Zm6.47.85a7.7,7.7,0,0,0,0-1.07.53.53,0,0,0-.33-.35c-.12,0-.29.12-.42.21s0,.13,0,.2a1,1,0,0,0,.24,0,1,1,0,0,0,.21-.1.83.83,0,0,1-.1.29c-.08.1-.24.15-.29.25a1.16,1.16,0,0,0-.05.49c0,.06.14.14.22.15A4,4,0,0,0,50.31,16.84Z"/><path class="cls-1" d="M84.23,38.19c-2.07-2.49-4.69-4.38-7-6.59a16.57,16.57,0,0,1-3.13-3.8,7.32,7.32,0,0,1-.85-2.4c0-.13,0-.26-.05-.48a12.6,12.6,0,0,0,1.05,1.17c1.08.93,2.17,1.85,3.29,2.74a23.38,23.38,0,0,1,3.3,2.91s.05,0,.12.09a30.48,30.48,0,0,0-4.77-9.66,2.21,2.21,0,0,1,.24.09c.74.48,1.48,1,2.21,1.47.07.05.08.2.1.31a1,1,0,0,1,0,.24L79,24.2l.15,0c0,.07,0,.16,0,.19a2,2,0,0,1-.27.23.44.44,0,0,0-.13.58.36.36,0,0,0,.23.15,3.62,3.62,0,0,0,.51,0l0-.71c.2.22.36.38.5.55A15.22,15.22,0,0,1,82.91,31a53.81,53.81,0,0,1,1.23,6.54Z"/><path class="cls-1" d="M21.09,25.28c0-.35,0-.73,0-1.11a.49.49,0,0,1,.1-.3,9.86,9.86,0,0,1,2.55-1.67A31.22,31.22,0,0,0,19,31.82a.6.6,0,0,0,.13-.08,19.27,19.27,0,0,1,3.17-2.81A26.29,26.29,0,0,0,25.86,26c.31-.33.59-.68.94-1.09a6.79,6.79,0,0,1-.49,2,11,11,0,0,1-2.66,3.77c-1.59,1.53-3.28,3-4.89,4.5-1,.93-1.89,1.93-2.82,2.9a.41.41,0,0,0-.07.15l-.1-.06L16,36.73a43.44,43.44,0,0,1,1.37-6.6,14.38,14.38,0,0,1,2.56-5c.1-.12.21-.23.34-.39a1.22,1.22,0,0,0,.05.34.54.54,0,0,0,.27.21A1.68,1.68,0,0,0,21.09,25.28Z"/><path class="cls-1" d="M69,33.65h-.74V31.57h-.9v2.08h-.75V28.71h.74v.17q0,.89,0,1.77c0,.11,0,.16.15.15h.75V28.7H69c0,.06,0,.12,0,.17v1.6a.6.6,0,0,1-.06.23c0,.07-.08.13,0,.19s0,.11,0,.16a.29.29,0,0,0,0,.36.14.14,0,0,1,0,.09Z"/><path class="cls-1" d="M64.68,24.66c-.71-.46-1.38-.87-2-1.32a.67.67,0,0,0-.91,0c-.51.38-1.08.71-1.63,1.07a1.35,1.35,0,0,1-.09-1c.14-.39.2-.8.34-1.19a.5.5,0,0,0-.22-.64c-.65-.51-1.28-1-2-1.6l.42-.05,2.17-.11a.45.45,0,0,0,.49-.35c.29-.79.6-1.57.94-2.43l.15.33c.27.7.55,1.39.8,2.09a.47.47,0,0,0,.51.36c.84,0,1.67.09,2.57.13l-.24.23c-.59.48-1.18,1-1.79,1.45a.42.42,0,0,0-.17.54c.21.75.41,1.51.6,2.26A1.81,1.81,0,0,1,64.68,24.66Z"/><path class="cls-1" d="M41.83,19.93c-.73.6-1.4,1.15-2.08,1.68a.35.35,0,0,0-.14.44c.14.49.26,1,.39,1.47,0,.17.12.32-.12.43-.08,0-.12.19-.2.32-.52-.34-1.06-.67-1.57-1a.49.49,0,0,0-.63,0c-.69.48-1.41.92-2.18,1.42.2-.77.34-1.49.58-2.16a.87.87,0,0,0-.39-1.2c-.58-.4-1.11-.89-1.73-1.39l.7-.05,2-.11a.32.32,0,0,0,.35-.25c.27-.72.55-1.44.83-2.15,0-.1.08-.2.15-.34a3,3,0,0,1,.13.28c.27.7.56,1.39.8,2.09a.5.5,0,0,0,.54.39c.74,0,1.47.07,2.2.11A3.52,3.52,0,0,1,41.83,19.93Z"/><path class="cls-1" d="M65.22,33.65h-.75v-4.2h-.79V28.7H66v.74h-.78Z"/><path class="cls-1" d="M31.87,63.86,34.1,62l.47.53-3.61,3c-.05,0-.07,0-.08,0-.47-.49-.47-.49-.12-1.06s.82-1.31,1.18-2L29.8,64.23l-.47-.53L33,60.64a3.27,3.27,0,0,1,.43.5.36.36,0,0,1,0,.31c-.46.72-.93,1.43-1.4,2.14l-.13.22Z"/><path class="cls-1" d="M35.83,66.27l-1.66,2.29-.58-.42,2.77-3.82.1,0c.59.37.59.37.36,1s-.47,1.32-.7,2a.6.6,0,0,0,0,.33l1.72-2.37.57.43-2.76,3.81h-.09c-.58-.39-.58-.39-.36-1s.48-1.47.72-2.21Z"/><path class="cls-1" d="M71.19,63c-.42.63-.42.63-1,.35l-1.08-.5-.29.38,1.4,1.1-.44.57L66,61.92c.33-.39.62-.78,1-1.13a.78.78,0,0,1,1-.13c.54.35,1.16.62,1.31,1.36,0,.07.12.13.2.17Zm-3-.2c.14-.26.49-.46.3-.72a2.36,2.36,0,0,0-.92-.7c-.12-.06-.4.25-.65.43Z"/><path class="cls-1" d="M56.92,73l-.05,0c-.66.22-.66.22-1-.38a7.09,7.09,0,0,1-.38-.72c-.12-.32-.3-.41-.64-.21l.41,1.7-.68.18L53.45,69c.53-.1,1-.23,1.55-.29a.74.74,0,0,1,.78.53A2.28,2.28,0,0,1,56,71.1a.42.42,0,0,0,.06.3Zm-2.24-2c.46,0,.74-.13.71-.35a6,6,0,0,0-.34-1.15s-.18-.06-.27-.05-.28.08-.45.13Z"/><path class="cls-1" d="M27.43,60.61l-.06,0c-.35-.57-.35-.57.18-1l.39-.28-.33-.66L26.56,59l-.34-.65,4.6-1.44.45.87Zm1.1-1.71,1.36-1,0,0-1.57.54Z"/><path class="cls-1" d="M46.47,69c-.43,1-.85,2-1.27,3-.18.43-.36.86-.56,1.28a.36.36,0,0,1-.28.15c-.75-.12-.76-.13-.72-.89.06-1.35.13-2.7.2-4.09a2.9,2.9,0,0,1,.58.14.32.32,0,0,1,.12.27c0,.87-.1,1.75-.16,2.62a2.11,2.11,0,0,0,0,.66l.14-.3c.35-.87.72-1.74,1.05-2.61.11-.28.23-.4.52-.27C46.21,69,46.32,69,46.47,69Z"/><path class="cls-1" d="M62.79,64.86l.77-.61c.87.77,1.74,1.51,2.56,2.32l-.9,1.13.51.89-.58.48Zm2.45,1.83-1.17-1.08-.06,0L64.83,67Z"/><path class="cls-1" d="M51.07,73.26V74L49.19,74s-.14-.11-.14-.17c-.06-1.51-.11-3-.16-4.58h2l0,.64L49.67,70v1.27h.95v.7l-.89,0v1.27Z"/><path class="cls-1" d="M60.64,67.6l-.56.41c-.07-.1-.12-.23-.2-.27a.63.63,0,0,0-.44,0,.51.51,0,0,0-.17.4.81.81,0,0,0,.55.67c.25.11.52.16.77.26a1.71,1.71,0,0,1,1.29,1.16,1,1,0,0,1-.48,1.23,1.13,1.13,0,0,1-1.4-.1,4.63,4.63,0,0,1-.44-.51l.61-.35c.11.12.19.28.32.35a.62.62,0,0,0,.49,0,.63.63,0,0,0,.18-.5c0-.32-.3-.47-.59-.58s-.88-.3-1.3-.5a1.32,1.32,0,0,1-.74-1.07,1.05,1.05,0,0,1,.8-1.18A1,1,0,0,1,60.64,67.6Z"/><path class="cls-1" d="M70.53,57.7c-.32-.28-.63-.58-1-.84s-.3-.36-.13-.61a2.4,2.4,0,0,0,.18-.36c.3.28.6.52.86.81a6.68,6.68,0,0,0,2.82,1.88l.26.13-.31.7c-1.41-1-3.07-1-4.71-1.11.09-.21.17-.37.23-.53s.15-.2.32-.17l1.43.17Z"/><path class="cls-1" d="M39.38,71.71l-.64-.3,2-4.31.65.3Z"/><path class="cls-1" d="M82,42.37c.06.36,0,.51-.28.46a.26.26,0,0,1-.15-.12s0-.12.1-.15A2.41,2.41,0,0,1,82,42.37Z"/><path class="cls-1" d="M66.45,66.86a3.09,3.09,0,0,1,0,.43c0,.06-.1.11-.16.16s-.13-.13-.12-.18a2.16,2.16,0,0,1,.14-.43Z"/><path class="cls-1" d="M18.46,41.55a3.2,3.2,0,0,1,0,.44s-.1.13-.14.12-.14-.1-.13-.13a3.75,3.75,0,0,1,.17-.47Z"/><path class="cls-1" d="M11.35,50.6a3.86,3.86,0,0,1-.55,0c-.07,0-.2-.09-.21-.15a1,1,0,0,1,.05-.49c0-.1.21-.15.29-.25a.83.83,0,0,0,.1-.29.88.88,0,0,1-.22.1,1.64,1.64,0,0,1-.23,0c0-.07,0-.18,0-.2s.3-.24.43-.21a.53.53,0,0,1,.33.35A7.67,7.67,0,0,1,11.35,50.6Z"/><path class="cls-1" d="M89.26,50.61a3.53,3.53,0,0,1-.54,0c-.08,0-.21-.09-.22-.15a1,1,0,0,1,0-.48c0-.11.23-.17.31-.27a.78.78,0,0,0,.09-.27l-.21.08-.24,0c0-.08,0-.2,0-.23s.29-.22.41-.19a.47.47,0,0,1,.33.31A8.46,8.46,0,0,1,89.26,50.61Z"/><path class="cls-1" d="M50.31,16.84a4,4,0,0,1-.55.05c-.08,0-.21-.09-.22-.15a1.16,1.16,0,0,1,.05-.49c0-.1.21-.15.29-.25a.83.83,0,0,0,.1-.29,1,1,0,0,1-.21.1,1,1,0,0,1-.24,0c0-.07,0-.18,0-.2s.3-.24.42-.21a.53.53,0,0,1,.33.35A7.7,7.7,0,0,1,50.31,16.84Z"/><polygon class="cls-1" points="65.63 67.02 66.79 67.87 67.12 67.44 66.12 66.56 65.63 67.02"/><path class="cls-1" d="M78,23.29a13.81,13.81,0,0,1,2,1.83c.56.72-.86,1.21-.86,1.21l-1.26-3.09"/><polygon class="cls-1" points="82 40.72 82.97 42.02 83.48 41.37 82.63 39.73 82 39.89 82 40.72"/><polygon class="cls-1" points="82.49 43.13 81.46 41.38 81.63 43.31 82.49 43.13"/><polygon class="cls-1" points="89.35 67.46 89.16 67.82 87.97 67.46 88.33 66.19 89.16 65.74 89.42 66.24 89.35 67.46"/><polygon class="cls-1" points="78.57 75.45 79.55 75.2 80.02 74.46 78.57 73.86 78.57 75.45"/><polygon class="cls-1" points="68.95 83.04 69.79 83.12 70.26 84.12 69.61 84.85 68.35 84.68 68.95 83.04"/><polygon class="cls-1" points="30.79 83.09 29.88 83.14 29.47 83.92 30.13 84.66 31.22 84.66 30.79 83.09"/><polygon class="cls-1" points="20.36 75.2 21.27 75.42 21.49 74.22 19.93 74.1 20.36 75.2"/><path class="cls-1" d="M14.45,68.55A26.35,26.35,0,0,1,11,65.36c-.44-.78-1,.06-1,.06a15.74,15.74,0,0,0,1.37,3.19C12.09,69.84,14.45,68.55,14.45,68.55Z"/><polygon class="cls-1" points="14.61 66.48 13.91 65.95 13.91 65.03 14.7 65.25 14.61 66.48"/><polygon class="cls-1" points="17.74 42.72 18.5 41.19 18.5 42.44 17.74 42.72"/><polygon class="cls-1" points="17.61 41.19 18.46 40.09 17.37 39.73 17.61 41.19"/><polygon class="cls-1" points="21.19 23.86 20.25 24.78 19.89 26.23 21.19 25.33 21.19 23.86"/><polygon class="cls-1" points="39.69 24.27 40.21 24.55 39.95 23.32 39.69 24.27"/><polygon class="cls-1" points="60.03 23.36 59.53 24.86 60.18 24.36 60.03 23.36"/><polygon class="cls-1" points="69.01 30.34 69.01 31.71 68.73 30.77 69.01 30.34"/><path class="cls-1" d="M34.35,85.54a14.52,14.52,0,0,0,5.15-1.8c1.58-.88,3.12-1.82,4.7-2.7A8,8,0,0,1,47,80a2.6,2.6,0,0,1,1.54.16,19.8,19.8,0,0,0-5.48,2.58,22.47,22.47,0,0,0-4.5,4.11l1.82,1.63h.44c.24-.35.47-.67.71-1A19.42,19.42,0,0,1,49.69,81a.78.78,0,0,1,.54,0,16.87,16.87,0,0,1,3.47,1.88,21.35,21.35,0,0,1,5.47,5.66h.45l1.8-1.63a20.28,20.28,0,0,0-10.07-6.71,2,2,0,0,1,.34-.1,4.07,4.07,0,0,1,2,.1,15.9,15.9,0,0,1,3.66,1.78,36.37,36.37,0,0,0,5.26,2.81,11.23,11.23,0,0,0,6.3.74,13.3,13.3,0,0,0,5.4-2.4c.62-.45,1.21-.93,1.82-1.4l-.05-.09a10.86,10.86,0,0,1-6.28,1.55V84.2c0,.15,0,.3-.25.17a.25.25,0,0,0-.19,0c-.21.09-.31,0-.36-.2a.5.5,0,0,1,.22-.56,1,1,0,0,0,.25-.2c0-.05,0-.14,0-.21s-.11,0-.15,0c-.3.18-.3.18-.35-.2a26,26,0,0,1-5.58-1.62c-1.82-.68-3.63-1.4-5.49-2a11,11,0,0,0-7.72.22.61.61,0,0,1-.42,0,10.78,10.78,0,0,0-6.25-.53A30.9,30.9,0,0,0,38,80.9a35.12,35.12,0,0,1-5.84,1.95c-.42.09-.84.15-1.32.24v1.28a2,2,0,0,1-.45,0c-.1,0-.24-.08-.27-.16a.46.46,0,0,1,.19-.62,1.43,1.43,0,0,0,.26-.23s0-.12,0-.18-.1,0-.11,0c-.18.26-.3.18-.42-.06,0,0-.12,0-.19,0a10.75,10.75,0,0,1-5.67-1.47,1,1,0,0,0-.18-.07,17,17,0,0,0,4.28,2.92A10.89,10.89,0,0,0,34.35,85.54Z"/><path class="cls-1" d="M36.53,40.13h-.08L31,42.7l-1.08-5,7.49-3.48h5.49V62.57H36.53Z"/><path class="cls-1" d="M68.19,48.28c0,8.75-3.53,14.77-10.76,14.77s-10.55-6.58-10.59-14.6c0-8.19,3.49-14.68,10.81-14.68C65.23,33.77,68.19,40.52,68.19,48.28Zm-14.68.17C53.46,54.94,55,58,57.6,58s4-3.23,4-9.68c0-6.27-1.35-9.58-4-9.58C55.12,38.78,53.46,41.87,53.51,48.45Z"/></svg>