<svg id="Layer_1" data-name="Layer 1" xmlns="http://www.w3.org/2000/svg" viewBox="0 0 100 100"><defs><style>.cls-1{fill:#fff;}</style></defs><path class="cls-1" d="M99.22,57.16c-.12.79-.19,1.6-.35,2.38a12,12,0,0,1-3.16,5.85,35.24,35.24,0,0,1-6.25,5.11c-1.48,1-3,2-4.56,2.88.16-.41.32-.81.46-1.22a22.25,22.25,0,0,0,1.13-5.89c.19-2.58.3-5.16.47-7.74a25.55,25.55,0,0,1,1.21-6.87q.1-.28.24-.6c.45,2.12.9,4.2,1.35,6.29a21.65,21.65,0,0,1,.56,5.14c0,1-.15,2-.23,2.94a1.73,1.73,0,0,0,0,.51l.41-.47c1.42-1.74,2.87-3.45,4.25-5.22a23.14,23.14,0,0,0,4.18-8.06c0,.12,0,.24,0,.37l.24,2.55Z"/><path class="cls-1" d="M.78,55.11,1,52.6c0-.14,0-.27.05-.47l.09.13A20.86,20.86,0,0,0,5,59.86c1.54,2,3.18,3.94,4.78,5.9a.85.85,0,0,1,.09.22l.12-.1c0-.22-.05-.44-.08-.66a23.42,23.42,0,0,1,.55-8.78c.4-1.77.77-3.55,1.16-5.34,0,.07.08.15.11.23A21.85,21.85,0,0,1,13,57.57c.19,2.56.29,5.12.46,7.67a24.81,24.81,0,0,0,1.44,7.52c.08.2.16.41.29.72-1-.65-2-1.23-2.89-1.84-1.14-.75-2.25-1.54-3.38-2.29a.68.68,0,0,1-.33-.66c0-.47,0-.47-.51-.42L8,68.59s-.06,0-.07,0a21.41,21.41,0,0,1-5.24-5.29A11.74,11.74,0,0,1,.86,57.72c0-.19,0-.38-.08-.56Z"/><path class="cls-1" d="M59.39,25.22c0,1.11,0,2.19,0,3.26a19.43,19.43,0,0,1-.7,5.82q-4,15.89-7.93,31.79c-.08.32-.2.41-.53.41-1.73,0-3.45,0-5.18,0h-.49c1.29-5.18,2.57-10.31,3.86-15.47.28.12.55.28.73,0l.65.22c0-.73,0-1.36,0-2a.7.7,0,0,0-.76-.71c1.42-5.69,2.83-11.34,4.25-17.06H40.71V25.22ZM50.73,49h.12a1.55,1.55,0,0,1,.08.36c0,.48,0,1,0,1.43,0,.22,0,.33.29.33s.27-.13.27-.31c0-.48,0-1,0-1.44,0-.12.11-.24.16-.36.06.12.17.23.17.35,0,.5,0,1,0,1.51a.32.32,0,0,0,.24.22c.09,0,.28-.11.28-.17,0-.66,0-1.32,0-2-.05-.49-.33-.58-.72-.29l-.16.11c-.24-.37-.49-.31-.66-.15a1.9,1.9,0,0,0-.56-.08c-.07,0-.14.21-.14.33,0,.66,0,1.31,0,2,0,.22.1.27.3.28s.26-.09.26-.28q0-.74,0-1.47A2.2,2.2,0,0,1,50.73,49Zm2.42-.43c-.54-.11-.55-.1-.55.4,0,.15,0,.3,0,.46,0,.45,0,.9.07,1.35s.29.44.61.25l.18-.13c.08.47,0,.53-.37.56s-.4.06-.28.46c1.08.11,1.25,0,1.25-1.11V49c0-.49,0-.52-.55-.38,0,.55,0,1.1,0,1.65a1.2,1.2,0,0,1-.16.4,1.36,1.36,0,0,1-.18-.39C53.14,49.73,53.15,49.18,53.15,48.61ZM49.44,29.89l.31-.12a2.1,2.1,0,0,1,.24-.06.76.76,0,0,1-.06.27c-.08.1-.26.15-.31.26a1.16,1.16,0,0,0-.15.64c0,.24.26.27.47.11,0,0,.11,0,.16.05s.26,0,.26-.16c0-.38,0-.76,0-1.13a.42.42,0,0,0-.49-.41C49.59,29.36,49.39,29.5,49.44,29.89Z"/><path class="cls-1" d="M86,61.35c-.3,1.65-.59,3.29-.91,4.92-.36,1.87-.67,3.75-1.13,5.59a12.36,12.36,0,0,1-3,5.66c-.18.19-.39.35-.66.59a1.35,1.35,0,0,0,.22,0c2.67-1.58,5.33-3.17,8-4.73a31.25,31.25,0,0,0,5.15-3.52,11.07,11.07,0,0,0,3-4.07l.13-.22a8.34,8.34,0,0,1-1,4.8h-.1a11.61,11.61,0,0,0,0-1.18.64.64,0,0,0-.29-.42.76.76,0,0,0-.52.09c-.07,0-.06.24-.09.36l.31-.08.22-.06c0,.08,0,.19,0,.24s-.23.14-.28.24a1.89,1.89,0,0,0-.25.63c0,.07.2.23.33.26a2.44,2.44,0,0,0,.6,0c-.94,3.15-7.86,8.6-11.34,9,0-.36.05-.88-.57-.84-.25,0-.43.19-.37.57l.31-.14L84,78.9c0,.09,0,.24,0,.27-.31.2-.52.52-1,.57a50,50,0,0,0-7.17,1.34l-.63.17c.53-.71,1.11-1.38,1.58-2.12a30,30,0,0,0,2.6-5.74C80.29,71.2,81.11,69,82,66.85a14.91,14.91,0,0,1,3.81-5.35Z"/><path class="cls-1" d="M14.09,61.34c.64.73,1.32,1.42,1.9,2.18a24.45,24.45,0,0,1,3.25,6.3c.86,2.26,1.69,4.54,2.59,6.78a13.27,13.27,0,0,0,3,4.68c-.73-.19-1.37-.38-2-.5-2-.37-4-.71-6-1-.56-.1-.57-.09-.6-.66,0-.31-.16-.52-.47-.52s-.48.14-.48.56l.35-.15a1.39,1.39,0,0,1,.19-.06c0,.08.06.19,0,.23a.56.56,0,0,1-.69.22,18.32,18.32,0,0,1-4-1.77A19.34,19.34,0,0,1,4.67,71.4a1.9,1.9,0,0,1-.36-1.24,7.46,7.46,0,0,0,0-1.25c0-.51-.21-.63-.72-.69-.11,0-.28-.14-.29-.23-.09-.77-.15-1.55-.22-2.32l.13,0,.12.21c.39.69.8,1.37,1.18,2.06a1.06,1.06,0,0,1,.1.46c0,.74,0,1.49,0,2.23,0,.08.19.2.3.22s.22-.15.22-.23c0-.45,0-.89,0-1.33,0-.13,0-.26,0-.39l.12,0a1.91,1.91,0,0,1,.13.45q0,.64,0,1.29c0,.2.09.3.27.25A.45.45,0,0,0,6,70.59c0-.29,0-.59,0-.93.58.27.23.78.42,1.15h.45l.07-.35.92.68a1.44,1.44,0,0,0-.38,0,.5.5,0,0,0-.21.27c0,.06.14.18.23.2a.92.92,0,0,0,.52,0c.39-.17.65,0,1,.21,2.2,1.29,4.41,2.55,6.6,3.84,1.27.75,2.52,1.55,3.77,2.33l.26.14c-.46-.53-.89-1-1.26-1.45a13.51,13.51,0,0,1-2.53-5.65c-.47-2.2-.81-4.44-1.23-6.65-.17-.9-.37-1.78-.56-2.67,0-.11,0-.21-.07-.32Z"/><path class="cls-1" d="M10.43,78.52a11.13,11.13,0,0,0,7.35,3.6c2.34.32,4.72.43,7.08.64l5.38.51h.28c-.14-.07-.19-.11-.25-.13a11.39,11.39,0,0,1-7.59-6.69C22,75,21.37,73.51,20.72,72a1.09,1.09,0,0,1,0-.17c.36.21.68.39,1,.59a57.81,57.81,0,0,1,6.37,5,37.56,37.56,0,0,0,6.67,4.88c.9.48,1.85.85,2.79,1.28l-1,.23c-2.64.61-5.27,1.27-7.92,1.8a22.51,22.51,0,0,1-8.06.25,13.63,13.63,0,0,1-9.42-6.18c-.23-.35-.44-.71-.66-1.06Z"/><path class="cls-1" d="M89.55,78.49A15,15,0,0,1,87,82,13.93,13.93,0,0,1,77,86.11a33.54,33.54,0,0,1-8.58-1c-1.94-.45-3.87-.94-5.81-1.41l-.23-.08c.63-.25,1.22-.46,1.78-.71a28.74,28.74,0,0,0,6.28-4.18c2.19-1.8,4.38-3.61,6.59-5.38a14.15,14.15,0,0,1,2.25-1.39c-.07.17-.13.34-.21.5-.78,1.71-1.52,3.44-2.37,5.11a10.87,10.87,0,0,1-6.87,5.59l-.25.08-.12.09c.63-.08,1.19-.18,1.76-.23,2.21-.16,4.43-.3,6.64-.45a34.51,34.51,0,0,0,5.81-.77A10.36,10.36,0,0,0,89.55,78.49Z"/><path class="cls-1" d="M4.39,37.6c0,.95-.09,1.85-.09,2.76a30.76,30.76,0,0,0,1,6.87c.4,1.75.76,3.52,1.14,5.28a1.56,1.56,0,0,0,.06.15c.23-.78.41-1.55.67-2.29a25,25,0,0,1,3-5.26c.77-1.18,1.47-2.41,2.22-3.61a.53.53,0,0,1,.22-.2c.19,0,.4-.07.66-.12-.11.74-.19,1.52-.33,2.28a45.19,45.19,0,0,1-2.07,7.11,42.79,42.79,0,0,0-2.07,7c-.22,1.3-.29,2.63-.43,3.95,0,.12,0,.24,0,.39-.07,0-.11,0-.13-.07a30.8,30.8,0,0,1-4.91-7.15A16.56,16.56,0,0,1,2.18,44.55,32.09,32.09,0,0,1,4.3,37.73.77.77,0,0,1,4.39,37.6Zm.54,13.1a10.5,10.5,0,0,0,0-1.25.58.58,0,0,0-.39-.4c-.14,0-.34.13-.49.24s0,.15,0,.23a1.32,1.32,0,0,0,.28,0l.25-.12a1.14,1.14,0,0,1-.12.34c-.09.12-.28.17-.33.29a1.21,1.21,0,0,0-.06.57c0,.07.15.17.24.18A4,4,0,0,0,4.93,50.7Z"/><path class="cls-1" d="M93.48,52.63c.21-1,.42-2.07.64-3.1.47-2.26,1-4.5,1.4-6.77a16.94,16.94,0,0,0,.1-4.61,1,1,0,0,1,0-.53c.29.74.59,1.48.86,2.23a24.24,24.24,0,0,1,1.6,7.75,16.49,16.49,0,0,1-2.61,9.26,40.7,40.7,0,0,1-3.68,4.9,1.56,1.56,0,0,0-.12.17c0-.07-.08-.1-.08-.13a28.37,28.37,0,0,0-1.79-9.2c-.82-2.44-1.63-4.88-2.38-7.34-.28-.93-.39-1.9-.58-2.85a1.47,1.47,0,0,1,0-.21l1-.22c1.46,2.38,3,4.78,4.4,7.23A11.85,11.85,0,0,1,93.48,52.63Zm2.31-1.92a11.59,11.59,0,0,0,0-1.31.59.59,0,0,0-.39-.36c-.14,0-.33.12-.47.22s0,.18,0,.27l.27,0a1.39,1.39,0,0,0,.26-.1.81.81,0,0,1-.11.32c-.1.12-.3.18-.36.31a1.21,1.21,0,0,0,0,.57c0,.07.17.16.26.17A5.12,5.12,0,0,0,95.79,50.71Z"/><path class="cls-1" d="M12.11,24.25a27.05,27.05,0,0,0-2.27,7.51c-.5,3-1,6.05-1.45,9.13.13-.28.23-.52.33-.75a16.65,16.65,0,0,1,3.88-5.26c1.62-1.57,3.27-3.11,4.91-4.66,0,0,.07,0,.19-.12-.14.49-.24.9-.37,1.31a21,21,0,0,1-3,5.46c-.3.44-.62.86-.92,1.29a1.53,1.53,0,0,1-.72.63c-.19.06-.28.4-.4.62a3.7,3.7,0,0,1-.19.5A47.87,47.87,0,0,0,8.07,46c-.39.75-.72,1.53-1.08,2.29a.92.92,0,0,1-.22.32c-.09-.83-.17-1.65-.27-2.47-.24-2-.55-3.94-.73-5.93A18.37,18.37,0,0,1,11.28,25c.26-.26.48-.55.72-.82Z"/><path class="cls-1" d="M88,24.18c.73.8,1.5,1.58,2.19,2.42C93.85,31.12,94.91,36.29,94,42c-.33,2.17-.53,4.35-.8,6.53a1.28,1.28,0,0,1,0,.17s-.08,0-.09-.08A33.84,33.84,0,0,0,88.7,41a4.08,4.08,0,0,0-.25-.33,1.89,1.89,0,0,1-.55-1.58c0-.43,0-.44-.51-.38l0,.17c0,.06,0,.12,0,.27-2.09-2.83-4.19-5.55-4.93-9l1.12,1.09c1.61,1.53,3.24,3,4.8,4.61a14,14,0,0,1,3.19,4.83,1.52,1.52,0,0,0,.13.26c-.2-1.22-.39-2.36-.59-3.5-.45-2.67-.87-5.35-1.38-8A20.83,20.83,0,0,0,88,24.47c0-.07-.07-.14-.11-.22Z"/><path class="cls-1" d="M42.81,10.33l3-.17c.63,0,1.26-.08,1.89-.09a.48.48,0,0,0,.52-.36c.52-1.4,1.07-2.78,1.6-4.17,0-.12.1-.23.17-.41l.16.33c.55,1.41,1.1,2.82,1.63,4.24a.48.48,0,0,0,.51.37c1.54.07,3.07.16,4.61.24l.32,0-.37.3c-1.17,1-2.34,1.91-3.53,2.86a.38.38,0,0,0-.15.48c.4,1.45.78,2.9,1.17,4.35,0,.13.06.26.11.45l-.31-.16q-1.91-1.23-3.8-2.47a.5.5,0,0,0-.67,0c-1.26.84-2.53,1.65-3.81,2.47a3.34,3.34,0,0,1-.32.18l.56-2.1c.24-.89.46-1.78.72-2.67a.47.47,0,0,0-.2-.57c-1.18-.94-2.35-1.9-3.52-2.86C43,10.53,43,10.46,42.81,10.33Zm7.55,1a8.74,8.74,0,0,0,0-1.25A.61.61,0,0,0,50,9.67c-.14,0-.34.14-.49.24s0,.16,0,.24a1.27,1.27,0,0,0,.28,0A1.36,1.36,0,0,0,50,10a1.14,1.14,0,0,1-.12.34c-.09.11-.28.17-.33.29a1.18,1.18,0,0,0-.06.56c0,.07.16.18.25.18A5.42,5.42,0,0,0,50.36,11.33Z"/><path class="cls-1" d="M89.92,36.23c-2.42-2.91-5.46-5.11-8.15-7.7a19.16,19.16,0,0,1-3.65-4.42,8.75,8.75,0,0,1-1-2.8c0-.15,0-.31-.06-.56a15.61,15.61,0,0,0,1.22,1.36c1.26,1.09,2.53,2.17,3.84,3.19A26.54,26.54,0,0,1,86,28.71l.14.1a35.44,35.44,0,0,0-5.57-11.27,2.31,2.31,0,0,1,.29.11c.86.56,1.73,1.13,2.58,1.71.08.06.09.24.11.36a1.32,1.32,0,0,1,0,.28l.28-.08a1.13,1.13,0,0,1,.18,0c0,.07,0,.18,0,.22a2,2,0,0,1-.32.26.53.53,0,0,0-.14.68.34.34,0,0,0,.26.17,2.73,2.73,0,0,0,.6,0l.06-.83c.23.26.41.44.57.64a17.78,17.78,0,0,1,3.35,6.89,65.55,65.55,0,0,1,1.43,7.62C89.85,35.73,89.89,36,89.92,36.23Z"/><path class="cls-1" d="M16.28,21.17c0-.41,0-.85,0-1.29a.53.53,0,0,1,.11-.36,11.36,11.36,0,0,1,3-1.94,36.45,36.45,0,0,0-5.49,11.21A.57.57,0,0,0,14,28.7a23.1,23.1,0,0,1,3.7-3.28A29.36,29.36,0,0,0,21.85,22c.35-.38.68-.79,1.09-1.26a7.93,7.93,0,0,1-.57,2.36,13,13,0,0,1-3.1,4.4c-1.86,1.79-3.83,3.47-5.7,5.25-1.14,1.08-2.2,2.25-3.3,3.38a.89.89,0,0,0-.08.17l-.11-.07.24-1.69a51.6,51.6,0,0,1,1.6-7.7,17.1,17.1,0,0,1,3-5.78l.41-.45a1.18,1.18,0,0,0,0,.39.59.59,0,0,0,.32.25A2.33,2.33,0,0,0,16.28,21.17Z"/><path class="cls-1" d="M72.35,36H70.73V31.4h-2v4.53H67.14V25.17h1.6c0,.13,0,.25,0,.37,0,1.29,0,2.58,0,3.86,0,.24,0,.35.31.34H70.7V25.17h1.62c0,.12,0,.24,0,.36,0,1.16,0,2.32,0,3.49a1.76,1.76,0,0,1-.12.49c0,.15-.18.29.06.41,0,0,0,.26,0,.36a.63.63,0,0,0,0,.77.4.4,0,0,1,.07.21C72.35,32.81,72.35,34.36,72.35,36Z"/><path class="cls-1" d="M67.13,20.44c-.84-.53-1.62-1-2.37-1.54a.76.76,0,0,0-1.05,0c-.6.45-1.26.83-1.91,1.25a1.56,1.56,0,0,1-.1-1.21c.16-.45.23-.94.39-1.39a.57.57,0,0,0-.26-.75c-.75-.59-1.49-1.2-2.31-1.86l.5-.06c.85,0,1.69-.1,2.53-.12a.54.54,0,0,0,.58-.41c.33-.92.7-1.84,1.09-2.84.08.18.13.28.17.39.32.81.65,1.61.93,2.43a.56.56,0,0,0,.61.43c1,0,1.93.09,3,.15l-.27.26c-.69.57-1.38,1.14-2.09,1.69a.51.51,0,0,0-.2.64c.25.87.47,1.75.71,2.63C67.08,20.2,67.09,20.28,67.13,20.44Z"/><path class="cls-1" d="M40.47,14.93c-.86.7-1.63,1.34-2.42,2a.41.41,0,0,0-.17.51c.17.57.3,1.15.46,1.72.06.2.14.38-.14.5-.1.05-.14.22-.23.37-.62-.4-1.24-.78-1.84-1.2a.55.55,0,0,0-.73,0c-.81.56-1.64,1.07-2.55,1.66.24-.9.4-1.74.69-2.52a1,1,0,0,0-.46-1.4c-.69-.47-1.3-1-2-1.62l.82-.06,2.34-.12a.41.41,0,0,0,.41-.31c.31-.83.64-1.67,1-2.5a3.61,3.61,0,0,1,.17-.4c.07.15.12.24.16.34.31.81.65,1.61.93,2.43a.58.58,0,0,0,.63.45c.85,0,1.71.08,2.57.13Z"/><path class="cls-1" d="M64.08,36H62.46V26.79H60.74V25.17h5v1.59h-1.7Z"/><path class="cls-1" d="M28.85,66.16,31.46,64l.55.63-4.22,3.54c-.05,0-.08,0-.09-.05-.55-.57-.55-.57-.14-1.23s1-1.54,1.38-2.36l-2.5,2.09L25.89,66l4.25-3.57a5.3,5.3,0,0,1,.5.6.41.41,0,0,1-.05.35c-.54.84-1.09,1.67-1.64,2.5l-.15.25Z"/><path class="cls-1" d="M33.48,69l-1.94,2.66-.68-.48L34.1,66.7l.1,0c.69.43.7.43.43,1.19s-.55,1.55-.82,2.32a.72.72,0,0,0,0,.39l2-2.76.67.5-3.22,4.44h-.1c-.68-.45-.68-.45-.43-1.21s.57-1.72.85-2.58Z"/><path class="cls-1" d="M74.71,65.11c-.49.74-.49.74-1.22.41L72.23,65l-.34.43,1.63,1.29-.51.66L68.62,63.9c.39-.46.73-.91,1.12-1.31a.92.92,0,0,1,1.19-.15c.62.4,1.35.72,1.52,1.58,0,.08.14.15.24.2Zm-3.48-.23c.17-.3.59-.53.36-.84a2.87,2.87,0,0,0-1.07-.82c-.15-.06-.47.3-.77.5Z"/><path class="cls-1" d="M58.07,76.87l-.06,0c-.77.26-.77.26-1.13-.44-.15-.28-.32-.55-.44-.84s-.36-.48-.75-.25l.48,2-.8.2L54,72.18c.62-.12,1.21-.27,1.82-.33a.83.83,0,0,1,.9.61A2.69,2.69,0,0,1,57,74.61c0,.09,0,.24.06.35ZM55.46,74.5c.54,0,.86-.15.83-.41a7.33,7.33,0,0,0-.4-1.34s-.21-.06-.31,0a4.32,4.32,0,0,0-.53.15Z"/><path class="cls-1" d="M23.67,62.37l-.06,0c-.41-.67-.41-.67.21-1.12l.45-.33-.38-.77-1.22.37-.41-.76L27.63,58l.53,1Zm1.28-2,1.59-1.11,0-.07-1.83.63Z"/><path class="cls-1" d="M45.88,72.16c-.5,1.18-1,2.31-1.48,3.44-.21.5-.42,1-.65,1.49a.41.41,0,0,1-.33.18c-.87-.14-.88-.15-.84-1,.08-1.58.16-3.15.24-4.77a3.13,3.13,0,0,1,.67.16c.08,0,.15.21.15.32-.06,1-.13,2-.2,3a3,3,0,0,0,0,.78l.16-.36c.41-1,.84-2,1.23-3,.12-.31.26-.46.6-.3A2.37,2.37,0,0,0,45.88,72.16Z"/><path class="cls-1" d="M64.91,67.33l.9-.72c1,.9,2,1.78,3,2.71l-1,1.32.6,1-.68.55Zm2.87,2.14-1.37-1.26-.07.05,1,1.59Z"/><path class="cls-1" d="M51.25,77.12v.82l-2.2.06a.26.26,0,0,1-.16-.19c-.07-1.76-.13-3.53-.19-5.35h2.36l0,.75-1.5.08v1.48h1.12v.82l-1,.06v1.47Z"/><path class="cls-1" d="M62.41,70.52l-.66.48c-.08-.11-.13-.26-.23-.3a.68.68,0,0,0-.51-.06.58.58,0,0,0-.19.46.91.91,0,0,0,.64.78c.28.12.6.19.89.3a2,2,0,0,1,1.5,1.35A1.21,1.21,0,0,1,63.3,75a1.31,1.31,0,0,1-1.64-.12,5.16,5.16,0,0,1-.51-.59l.71-.41c.12.14.22.33.38.41a.74.74,0,0,0,.57.06.75.75,0,0,0,.21-.58c-.05-.38-.36-.56-.69-.68-.51-.19-1-.36-1.52-.58A1.54,1.54,0,0,1,60,71.22a1.22,1.22,0,0,1,.93-1.36A1.19,1.19,0,0,1,62.41,70.52Z"/><path class="cls-1" d="M74,59c-.38-.33-.74-.68-1.13-1s-.36-.41-.16-.71c.08-.12.12-.25.21-.42.35.33.7.61,1,.94A7.91,7.91,0,0,0,77.16,60a1.71,1.71,0,0,1,.31.15l-.36.81c-1.65-1.21-3.58-1.13-5.5-1.29.11-.25.2-.43.26-.61a.29.29,0,0,1,.38-.21c.55.08,1.11.13,1.67.2Z"/><path class="cls-1" d="M37.62,75.32,36.86,75l2.34-5,.76.35Z"/><path class="cls-1" d="M87.31,41.11c.07.41,0,.58-.32.53a.26.26,0,0,1-.18-.14s.06-.14.12-.18A2.59,2.59,0,0,1,87.31,41.11Z"/><path class="cls-1" d="M69.18,69.66a2.9,2.9,0,0,1,0,.51c0,.07-.12.12-.18.18s-.16-.15-.15-.21a3,3,0,0,1,.17-.5Z"/><path class="cls-1" d="M48.78,49.65a3.12,3.12,0,0,1,.15-.43c0-.07.15-.11.23-.17,0,.1.11.21.08.28a2.25,2.25,0,0,1-.28.47Z"/><path class="cls-1" d="M49.27,50a3.85,3.85,0,0,1,0,.48c0,.07-.11.13-.17.2s-.18-.15-.16-.2a3.2,3.2,0,0,1,.18-.52Z"/><path class="cls-1" d="M13.21,40.15a4.34,4.34,0,0,1,0,.51c0,.06-.12.15-.17.14s-.16-.12-.15-.16a5,5,0,0,1,.2-.54Z"/><path class="cls-1" d="M50.73,49a2.2,2.2,0,0,0-.07.37q0,.73,0,1.47c0,.19-.06.28-.26.28s-.3-.06-.3-.28c0-.66,0-1.31,0-2,0-.12.07-.32.14-.33a1.9,1.9,0,0,1,.56.08c.17-.16.42-.22.66.15l.16-.11c.39-.29.67-.2.72.29,0,.65,0,1.31,0,2,0,.06-.19.18-.28.17a.32.32,0,0,1-.24-.22c0-.5,0-1,0-1.51,0-.12-.11-.23-.17-.35,0,.12-.16.24-.16.36,0,.48,0,1,0,1.44,0,.18,0,.3-.27.31s-.29-.11-.29-.33c0-.47,0-.95,0-1.43a1.55,1.55,0,0,0-.08-.36Z"/><path class="cls-1" d="M53.15,48.61c0,.57,0,1.12,0,1.67a1.36,1.36,0,0,0,.18.39,1.2,1.2,0,0,0,.16-.4c0-.55,0-1.1,0-1.65.52-.14.55-.11.55.38v1.85c0,1.07-.17,1.22-1.25,1.11-.12-.4-.1-.44.28-.46s.45-.09.37-.56l-.18.13c-.32.19-.57.11-.61-.25s-.05-.9-.07-1.35c0-.16,0-.31,0-.46C52.6,48.51,52.61,48.5,53.15,48.61Z"/><path class="cls-1" d="M49.44,29.89c0-.39.15-.53.42-.55a.42.42,0,0,1,.49.41c0,.37,0,.75,0,1.13,0,.17-.08.25-.26.16S50,31,49.94,31c-.21.16-.43.13-.47-.11a1.16,1.16,0,0,1,.15-.64c.05-.11.23-.16.31-.26a.76.76,0,0,0,.06-.27,2.1,2.1,0,0,0-.24.06Z"/><path class="cls-1" d="M4.93,50.7a4,4,0,0,1-.65.06c-.09,0-.24-.11-.24-.18A1.21,1.21,0,0,1,4.1,50c.05-.12.24-.17.33-.29a1.14,1.14,0,0,0,.12-.34l-.25.12a1.32,1.32,0,0,1-.28,0c0-.08,0-.21,0-.23s.35-.28.49-.24a.58.58,0,0,1,.39.4A10.5,10.5,0,0,1,4.93,50.7Z"/><path class="cls-1" d="M95.79,50.71a5.12,5.12,0,0,1-.63,0c-.09,0-.25-.1-.26-.17A1.21,1.21,0,0,1,95,50c.06-.13.26-.19.36-.31a.81.81,0,0,0,.11-.32,1.39,1.39,0,0,1-.26.1l-.27,0c0-.09,0-.23,0-.27s.33-.25.47-.22a.59.59,0,0,1,.39.36A11.59,11.59,0,0,1,95.79,50.71Z"/><path class="cls-1" d="M50.36,11.33a5.42,5.42,0,0,1-.64.05c-.09,0-.25-.11-.25-.18a1.18,1.18,0,0,1,.06-.56c0-.12.24-.18.33-.29A1.14,1.14,0,0,0,50,10a1.36,1.36,0,0,1-.25.11,1.27,1.27,0,0,1-.28,0c0-.08,0-.21,0-.24s.35-.27.49-.24a.61.61,0,0,1,.39.41A8.74,8.74,0,0,1,50.36,11.33Z"/><polygon class="cls-1" points="68.22 69.85 69.59 70.84 69.97 70.34 68.8 69.32 68.22 69.85"/><path class="cls-1" d="M82.66,18.85A16,16,0,0,1,85,21c.66.85-1,1.42-1,1.42l-1.47-3.61"/><polygon class="cls-1" points="87.32 39.18 88.45 40.7 89.05 39.94 88.06 38.03 87.32 38.21 87.32 39.18"/><polygon class="cls-1" points="87.9 41.98 86.69 39.95 86.89 42.2 87.9 41.98"/><polygon class="cls-1" points="95.89 70.37 95.67 70.78 94.28 70.37 94.71 68.89 95.67 68.36 95.98 68.94 95.89 70.37"/><polygon class="cls-1" points="83.32 79.68 84.46 79.39 85.01 78.53 83.32 77.83 83.32 79.68"/><polygon class="cls-1" points="72.11 88.53 73.08 88.63 73.62 89.8 72.86 90.65 71.4 90.44 72.11 88.53"/><polygon class="cls-1" points="27.6 88.59 26.54 88.65 26.05 89.56 26.83 90.42 28.09 90.42 27.6 88.59"/><polygon class="cls-1" points="15.43 79.39 16.5 79.64 16.74 78.25 14.93 78.11 15.43 79.39"/><path class="cls-1" d="M8.54,71.64s-3.54-2.82-4-3.73S3.28,68,3.28,68a18.25,18.25,0,0,0,1.59,3.72C5.78,73.14,8.54,71.64,8.54,71.64Z"/><polygon class="cls-1" points="8.73 69.22 7.91 68.6 7.91 67.53 8.83 67.79 8.73 69.22"/><polygon class="cls-1" points="12.38 41.5 13.26 39.72 13.26 41.18 12.38 41.5"/><polygon class="cls-1" points="12.22 39.72 13.22 38.44 11.94 38.03 12.22 39.72"/><polygon class="cls-1" points="16.4 19.52 15.31 20.59 14.89 22.28 16.4 21.23 16.4 19.52"/><polygon class="cls-1" points="37.97 19.99 38.58 20.31 38.27 18.88 37.97 19.99"/><polygon class="cls-1" points="61.7 18.93 61.12 20.68 61.87 20.09 61.7 18.93"/><polygon class="cls-1" points="49.1 48.43 48.3 51.52 49.94 51.52 50.2 47.74 49.1 48.43"/><polygon class="cls-1" points="72.34 28.72 72.35 31.72 71.74 29.66 72.34 28.72"/><path class="cls-1" d="M31.75,91.45a17,17,0,0,0,6-2.1c1.85-1,3.65-2.12,5.48-3.15A9.58,9.58,0,0,1,46.51,85a3,3,0,0,1,1.8.2,22.93,22.93,0,0,0-6.39,3A26.49,26.49,0,0,0,36.67,93l2.12,1.91h.51l.83-1.15a22.65,22.65,0,0,1,9.51-7.62.92.92,0,0,1,.63,0,19.61,19.61,0,0,1,4,2.2,24.7,24.7,0,0,1,6.37,6.6h.53L63.32,93a23.69,23.69,0,0,0-11.74-7.82L52,85a4.79,4.79,0,0,1,2.32.12,18.42,18.42,0,0,1,4.28,2.08A42.93,42.93,0,0,0,64.7,90.5a13.18,13.18,0,0,0,7.34.86,15.53,15.53,0,0,0,6.3-2.81c.73-.52,1.42-1.08,2.12-1.62l0-.11a12.7,12.7,0,0,1-7.33,1.81v1.25c0,.18,0,.35-.29.21a.31.31,0,0,0-.23,0c-.24.1-.35,0-.41-.23a.57.57,0,0,1,.26-.66,1.08,1.08,0,0,0,.28-.24s0-.15,0-.23a.46.46,0,0,0-.17,0c-.35.22-.35.22-.4-.23a30.38,30.38,0,0,1-6.52-1.88c-2.12-.8-4.24-1.64-6.4-2.31a12.8,12.8,0,0,0-9,.25.73.73,0,0,1-.5,0,12.58,12.58,0,0,0-7.28-.61A36.2,36.2,0,0,0,35.94,86a41.47,41.47,0,0,1-6.8,2.28c-.49.1-1,.17-1.54.27v1.49a2.17,2.17,0,0,1-.53,0,.46.46,0,0,1-.32-.18.56.56,0,0,1,.22-.73,1.58,1.58,0,0,0,.31-.27s0-.14,0-.2-.12,0-.13,0c-.22.31-.36.21-.49-.07,0,0-.15,0-.22,0a12.51,12.51,0,0,1-6.62-1.72l-.2-.07a20.07,20.07,0,0,0,5,3.4A12.72,12.72,0,0,0,31.75,91.45Z"/></svg>